# xmcd
#
# Track frame offsets: 
#        150
#        17994
#        34065
#        49941
#        65391
#        81355
#        95246
#        110483
#        125808
#        143054
#        154942
#        170852
#        186825
#        204936
#        222091
#        235733
#        252401
#        277780
#        292603
#        307532
#
# Disc length: 4339 seconds
#
# Revision: 0
# Processed by: cddbd v1.5.2PL0 Copyright (c) Steve Scherf et al.
# Submitted via: ExactAudioCopy v1.0b3
#
DISCID=1e10f114
DTITLE=Various Artist - Union Trance Vol. 1 - CD 1
DYEAR=1900
DGENRE=
TTITLE0=Ian Van Dahl - Just A Girl (Megara Vs. DJ Lee Rmx Cut)
TTITLE1=Paffendorf - La La La Girl (Short Version)
TTITLE2=DJ Klubbingman Feat. Trixi Delgado - Ride On A White Train (Li
TTITLE2=ke A Hurricane) (Original Club Radio Edit)
TTITLE3=Cascada - Ready For Love (Radio Edit)
TTITLE4=Commander Tom Vs. Oliver Cats - I Can't Sleep (Flips1de Rmx Ed
TTITLE4=it)
TTITLE5=Azuria - Forgive Me (C7 Meets Ozi Radio Edit)
TTITLE6=Mario Lopez - Lonely (Without You) (Original Radio Cut)
TTITLE7=Antares Vs. Bigroom Society - Ride On A Meteorite (Bigroom Soc
TTITLE7=iety Radio Mix)
TTITLE8=Age Pee - Hymn! (Radio Edit)
TTITLE9=Tom Mountain - A Little Respect (The Real Booty Babes Radio Mi
TTITLE9=x)
TTITLE10=Aycan - Seduced (Central Seven Rmx Radio)
TTITLE11=Stars 'n' Stripes - Self Esteem (Klubbrockerz Radio Mix)
TTITLE12=Turbo Lovers - Let's Go Trippin'
TTITLE13=Freddy Fader - Time After Time (David's Song) (Single Edit)
TTITLE14=Lacuna - Celebrate The Summer 2006 (Verano Nasty Summer Rmx E
TTITLE14=dit)
TTITLE15=Dhany - Miles Of Love (Radio Edit)
TTITLE16=Benassi Bros. Feat. Sandy - Feel Alive (Original Extended)
TTITLE17=Tunebazz Inc. - Party With You (Radio Edit)
TTITLE18=Bass Up! - Hold Me Back (Technorocker Radio)
TTITLE19=Bangbros - 1, 2, 3...Feierschweinerei (Single Edit)
EXTD=
EXTT0=
EXTT1=
EXTT2=
EXTT3=
EXTT4=
EXTT5=
EXTT6=
EXTT7=
EXTT8=
EXTT9=
EXTT10=
EXTT11=
EXTT12=
EXTT13=
EXTT14=
EXTT15=
EXTT16=
EXTT17=
EXTT18=
EXTT19=
PLAYORDER=
